<svg width="206" height="42" viewBox="0 0 206 42" fill="none" xmlns="http://www.w3.org/2000/svg">
<path d="M155.76 29.372V41.1137L146.084 21.264L155.76 29.372Z" fill="#D6BDEF"/>
<path d="M155.75 1.13697L145.964 19.2102L155.75 17.1904V1.13697Z" fill="#D6BDEF"/>
<path d="M155.807 1.11365L165.538 19.0767L155.807 17.1996V1.11365Z" fill="#C3AFF0"/>
<path d="M165.553 21.2654L155.822 29.3741V41.1121L165.553 21.2654Z" fill="#C3AFF0"/>
<path d="M155.747 27.6706C155.717 27.9282 149.182 22.1746 145.918 19.2655L155.747 17.2142C155.76 20.5923 155.778 27.4129 155.747 27.6706Z" fill="#AA91F0"/>
<path d="M155.809 17.214L165.593 19.1375L155.774 27.6435L155.809 17.214Z" fill="#9778ED"/>
<path fill-rule="evenodd" clip-rule="evenodd" d="M2.7112 4.74441V40.7092H11.8541V16.2482L36.9225 40.7092H56.6019L69.3975 27.2085L81.9677 40.7092L87.6258 34.5302C88.3231 36.5255 91.4592 40.5547 98.4255 40.7092C105.392 40.8637 109.358 38.1058 110.47 36.7076C114.308 39.7354 124.307 44.1645 133.602 37.6582C146.063 26.5678 137.087 17.59 132.123 16.0056C128.151 14.7382 124.624 15.9704 123.356 16.745C122.089 17.2731 119.279 17.3998 118.181 13.6819C119.86 8.81297 128.072 10.5605 132.045 12.068C131.893 12.4427 131.967 12.3608 132.123 12.0976L132.045 12.068C132.341 11.3401 133.491 8.88911 136.559 2.69727C130.691 0.409892 125.496 0.82529 121.809 1.12014C121.58 1.13844 121.357 1.15627 121.14 1.17296C118.168 1.40153 114.664 5.12534 113.283 6.95867V2.10153H102.64L104.854 4.0301V28.2444C104.092 29.6015 101.74 32.3015 98.4255 32.2444C95.1112 32.1872 93.0922 29.5539 92.4969 28.2444V4.0301L94.6398 2.10153H77.3541L71.3541 10.7444L65.5684 2.10153H28.8541L30.7827 4.0301V21.3872L11.8541 2.10153H0.282715L2.7112 4.74441ZM54.2671 2.87987L54.2739 2.86969L66.4011 17.2255L52.7709 33.758L48.6247 29.301H39.1924V24.5848H50.8533V15.2561H39.1924V10.9027C42.2156 10.9373 48.3345 10.9856 48.6247 10.9027C48.9851 10.7997 53.8972 3.43457 54.2671 2.87987ZM83.3603 8.8103L74.4836 19.1769L83.3603 29.5434V8.8103ZM113.281 21.8461V28.1778C114.522 29.3779 118.476 32.0928 122.697 32.1425C126.918 32.1921 129.249 29.9992 130.511 28.4266C130.536 28.3586 130.566 28.2816 130.599 28.1973C131.048 27.05 132.031 24.5351 129.302 24.5351C127.77 24.5351 126.894 24.9011 126.016 25.2677C124.796 25.7777 123.571 26.2891 120.574 25.8197C116.5 25.1815 114.486 23.0947 113.321 21.8877L113.281 21.8461Z" fill="white"/>
<path d="M175.599 15.3702C174.745 15.3702 174.095 15.1302 173.647 14.6502C173.199 14.1595 172.975 13.4609 172.975 12.5542V6.6662C172.975 5.75954 173.199 5.0662 173.647 4.5862C174.095 4.09554 174.745 3.8502 175.599 3.8502C176.452 3.8502 177.103 4.09554 177.551 4.5862C177.999 5.0662 178.223 5.75954 178.223 6.6662V7.6262H176.559V6.5542C176.559 5.8182 176.255 5.4502 175.647 5.4502C175.039 5.4502 174.735 5.8182 174.735 6.5542V12.6822C174.735 13.4075 175.039 13.7702 175.647 13.7702C176.255 13.7702 176.559 13.4075 176.559 12.6822V10.4902H175.679V8.8902H178.223V12.5542C178.223 13.4609 177.999 14.1595 177.551 14.6502C177.103 15.1302 176.452 15.3702 175.599 15.3702Z" fill="white"/>
<path d="M180.713 4.0102H183.097L184.921 15.2102H183.161L182.841 12.9862V13.0182H180.841L180.521 15.2102H178.889L180.713 4.0102ZM182.633 11.4982L181.849 5.9622H181.817L181.049 11.4982H182.633Z" fill="white"/>
<path d="M185.775 4.0102H188.287L189.407 12.0262H189.439L190.559 4.0102H193.071V15.2102H191.407V6.7302H191.375L190.095 15.2102H188.623L187.343 6.7302H187.311V15.2102H185.775V4.0102Z" fill="white"/>
<path d="M194.384 4.0102H199.184V5.6102H196.144V8.5702H198.56V10.1702H196.144V13.6102H199.184V15.2102H194.384V4.0102Z" fill="white"/>
<path d="M202.516 15.3702C201.663 15.3702 201.017 15.1302 200.58 14.6502C200.143 14.1595 199.924 13.4609 199.924 12.5542V11.9142H201.588V12.6822C201.588 13.4075 201.892 13.7702 202.5 13.7702C202.798 13.7702 203.023 13.6849 203.172 13.5142C203.332 13.3329 203.412 13.0449 203.412 12.6502C203.412 12.1809 203.305 11.7702 203.092 11.4182C202.879 11.0555 202.484 10.6235 201.908 10.1222C201.183 9.4822 200.676 8.9062 200.388 8.3942C200.1 7.87154 199.956 7.28487 199.956 6.6342C199.956 5.74887 200.18 5.0662 200.628 4.5862C201.076 4.09554 201.727 3.8502 202.58 3.8502C203.423 3.8502 204.057 4.09554 204.484 4.5862C204.921 5.0662 205.14 5.75954 205.14 6.6662V7.13021H203.476V6.5542C203.476 6.1702 203.401 5.89287 203.252 5.7222C203.102 5.54087 202.884 5.4502 202.596 5.4502C202.009 5.4502 201.716 5.80754 201.716 6.5222C201.716 6.92754 201.823 7.3062 202.036 7.6582C202.26 8.0102 202.66 8.43687 203.236 8.9382C203.972 9.5782 204.479 10.1595 204.756 10.6822C205.033 11.2049 205.172 11.8182 205.172 12.5222C205.172 13.4395 204.943 14.1435 204.484 14.6342C204.036 15.1249 203.38 15.3702 202.516 15.3702Z" fill="white"/>
<path d="M176.531 34.3702C175.678 34.3702 175.033 34.1302 174.595 33.6502C174.158 33.1595 173.939 32.4609 173.939 31.5542V30.9142H175.603V31.6822C175.603 32.4075 175.907 32.7702 176.515 32.7702C176.814 32.7702 177.038 32.6849 177.187 32.5142C177.347 32.3329 177.427 32.0449 177.427 31.6502C177.427 31.1809 177.321 30.7702 177.107 30.4182C176.894 30.0555 176.499 29.6235 175.923 29.1222C175.198 28.4822 174.691 27.9062 174.403 27.3942C174.115 26.8715 173.971 26.2849 173.971 25.6342C173.971 24.7489 174.195 24.0662 174.643 23.5862C175.091 23.0955 175.742 22.8502 176.595 22.8502C177.438 22.8502 178.073 23.0955 178.499 23.5862C178.937 24.0662 179.155 24.7595 179.155 25.6662V26.1302H177.491V25.5542C177.491 25.1702 177.417 24.8929 177.267 24.7222C177.118 24.5409 176.899 24.4502 176.611 24.4502C176.025 24.4502 175.731 24.8075 175.731 25.5222C175.731 25.9275 175.838 26.3062 176.051 26.6582C176.275 27.0102 176.675 27.4369 177.251 27.9382C177.987 28.5782 178.494 29.1595 178.771 29.6822C179.049 30.2049 179.187 30.8182 179.187 31.5222C179.187 32.4395 178.958 33.1435 178.499 33.6342C178.051 34.1249 177.395 34.3702 176.531 34.3702Z" fill="white"/>
<path d="M181.573 24.6102H179.733V23.0102H185.173V24.6102H183.333V34.2102H181.573V24.6102Z" fill="white"/>
<path d="M186.65 23.0102H189.034L190.858 34.2102H189.098L188.778 31.9862V32.0182H186.778L186.458 34.2102H184.826L186.65 23.0102ZM188.57 30.4982L187.786 24.9622H187.754L186.986 30.4982H188.57Z" fill="white"/>
<path d="M191.712 23.0102H193.92L195.632 29.7142H195.664V23.0102H197.232V34.2102H195.424L193.312 26.0342H193.28V34.2102H191.712V23.0102Z" fill="white"/>
<path d="M198.54 23.0102H201.228C202.103 23.0102 202.759 23.2449 203.196 23.7142C203.634 24.1835 203.852 24.8715 203.852 25.7782V31.4422C203.852 32.3489 203.634 33.0369 203.196 33.5062C202.759 33.9755 202.103 34.2102 201.228 34.2102H198.54V23.0102ZM201.196 32.6102C201.484 32.6102 201.703 32.5249 201.852 32.3542C202.012 32.1835 202.092 31.9062 202.092 31.5222V25.6982C202.092 25.3142 202.012 25.0369 201.852 24.8662C201.703 24.6955 201.484 24.6102 201.196 24.6102H200.3V32.6102H201.196Z" fill="white"/>
</svg>
