<svg width="165" height="33" viewBox="0 0 165 33" fill="none" xmlns="http://www.w3.org/2000/svg">
<path d="M125.208 22.9399V32.3956L117.416 16.4104L125.208 22.9399Z" fill="#E1B06B"/>
<path d="M125.2 0.201829L117.319 14.7565L125.2 13.1299V0.201829Z" fill="#E1B06B"/>
<path d="M125.246 0.183044L133.082 14.6489L125.246 13.1373V0.183044Z" fill="#E39830"/>
<path d="M133.094 16.4116L125.258 22.9416V32.3943L133.094 16.4116Z" fill="#E39830"/>
<path d="M125.198 21.5697C125.173 21.7772 119.911 17.1437 117.282 14.801L125.198 13.149C125.208 15.8694 125.222 21.3622 125.198 21.5697Z" fill="#E8A548"/>
<path d="M125.248 13.1488L133.127 14.6979L125.22 21.5479L125.248 13.1488Z" fill="#E5901A"/>
<path fill-rule="evenodd" clip-rule="evenodd" d="M1.95569 3.10695V32.0699H9.3186V12.3711L29.5065 32.0699H45.3546L55.6591 21.1976L65.7821 32.0699L70.3386 27.0939C70.9001 28.7007 73.4257 31.9455 79.0357 32.0699C84.6457 32.1943 87.8398 29.9733 88.7356 28.8473C91.8261 31.2857 99.8783 34.8525 107.364 29.6128C117.399 20.6817 110.17 13.4516 106.173 12.1758C102.974 11.155 100.133 12.1474 99.1128 12.7712C98.0921 13.1965 95.8295 13.2985 94.9449 10.3045C96.297 6.38342 102.91 7.79072 106.11 9.00473C105.988 9.30649 106.047 9.24055 106.173 9.02857L106.11 9.00473C106.348 8.41853 107.274 6.44473 109.745 1.45836C105.02 -0.3837 100.836 -0.0491748 97.8664 0.188273C97.6822 0.203007 97.5026 0.217366 97.3278 0.230809C94.9349 0.414881 92.1125 3.41371 91.0004 4.89012V0.978598H82.4295L84.2127 2.5317V22.0318C83.5991 23.1247 81.7047 25.2991 79.0357 25.253C76.3667 25.207 74.7407 23.0864 74.2614 22.0318V2.5317L75.987 0.978598H62.0666L57.2347 7.93881L52.5754 0.978598H23.0089L24.562 2.5317V16.5096L9.3186 0.978598H0L1.95569 3.10695ZM43.4744 1.6054L43.4798 1.59721L53.2461 13.1581L42.2694 26.472L38.9305 22.8827H31.3345V19.0847H40.7252V11.5722H31.3345V8.06631C33.7691 8.09413 38.6968 8.13309 38.9305 8.06631C39.2207 7.98339 43.1764 2.05212 43.4744 1.6054ZM66.9035 6.38126L59.755 14.7296L66.9035 23.0779V6.38126ZM90.9987 16.8792V21.9782C91.9985 22.9446 95.1826 25.131 98.582 25.171C101.981 25.211 103.858 23.4449 104.874 22.1785C104.895 22.1238 104.919 22.0618 104.946 21.9938C105.307 21.0699 106.099 19.0447 103.901 19.0447C102.667 19.0447 101.962 19.3394 101.255 19.6347C100.272 20.0453 99.2861 20.4572 96.8725 20.0792C93.5911 19.5652 91.9691 17.8847 91.0309 16.9126L90.9987 16.8792Z" fill="white"/>
<path d="M141.184 11.664C140.497 11.664 139.973 11.4708 139.612 11.0842C139.252 10.6891 139.071 10.1264 139.071 9.39628V4.65459C139.071 3.92444 139.252 3.36609 139.612 2.97954C139.973 2.5844 140.497 2.38683 141.184 2.38683C141.872 2.38683 142.396 2.5844 142.756 2.97954C143.117 3.36609 143.298 3.92444 143.298 4.65459V5.42769H141.958V4.5644C141.958 3.97169 141.713 3.67533 141.223 3.67533C140.733 3.67533 140.489 3.97169 140.489 4.5644V9.49936C140.489 10.0835 140.733 10.3755 141.223 10.3755C141.713 10.3755 141.958 10.0835 141.958 9.49936V7.73411H141.249V6.44561H143.298V9.39628C143.298 10.1264 143.117 10.6891 142.756 11.0842C142.396 11.4708 141.872 11.664 141.184 11.664Z" fill="white"/>
<path d="M145.303 2.51568H147.223L148.692 11.5352H147.274L147.017 9.74417V9.76994H145.406L145.148 11.5352H143.834L145.303 2.51568ZM146.849 8.54587L146.218 4.08765H146.192L145.573 8.54587H146.849Z" fill="white"/>
<path d="M149.379 2.51568H151.402L152.304 8.97107H152.33L153.232 2.51568H155.255V11.5352H153.915V4.70613H153.889L152.858 11.5352H151.673L150.642 4.70613H150.616V11.5352H149.379V2.51568Z" fill="white"/>
<path d="M156.312 2.51568H160.178V3.80418H157.73V6.18791H159.675V7.47641H157.73V10.2467H160.178V11.5352H156.312V2.51568Z" fill="white"/>
<path d="M162.861 11.664C162.174 11.664 161.654 11.4708 161.302 11.0842C160.95 10.6891 160.774 10.1264 160.774 9.39628V8.88088H162.114V9.49936C162.114 10.0835 162.359 10.3755 162.848 10.3755C163.089 10.3755 163.269 10.3068 163.389 10.1694C163.518 10.0233 163.583 9.79142 163.583 9.47359C163.583 9.09563 163.497 8.76491 163.325 8.48144C163.153 8.18938 162.835 7.84149 162.371 7.43776C161.787 6.92236 161.379 6.4585 161.147 6.04618C160.915 5.62526 160.799 5.15281 160.799 4.62882C160.799 3.91585 160.98 3.36609 161.341 2.97954C161.701 2.5844 162.225 2.38683 162.913 2.38683C163.591 2.38683 164.102 2.5844 164.446 2.97954C164.798 3.36609 164.974 3.92444 164.974 4.65459V5.02826H163.634V4.5644C163.634 4.25516 163.574 4.03182 163.454 3.89438C163.334 3.74835 163.157 3.67533 162.926 3.67533C162.453 3.67533 162.217 3.9631 162.217 4.53863C162.217 4.86505 162.303 5.16999 162.475 5.45346C162.655 5.73693 162.977 6.08053 163.441 6.48427C164.034 6.99967 164.442 7.46782 164.665 7.88873C164.888 8.30964 165 8.80357 165 9.37051C165 10.1093 164.815 10.6762 164.446 11.0713C164.085 11.4665 163.557 11.664 162.861 11.664Z" fill="white"/>
<path d="M141.936 26.965C141.248 26.965 140.729 26.7717 140.376 26.3852C140.024 25.99 139.848 25.4274 139.848 24.6972V24.1818H141.188V24.8003C141.188 25.3844 141.433 25.6765 141.923 25.6765C142.163 25.6765 142.344 25.6078 142.464 25.4703C142.593 25.3243 142.657 25.0924 142.657 24.7745C142.657 24.3966 142.571 24.0659 142.399 23.7824C142.228 23.4903 141.91 23.1424 141.446 22.7387C140.862 22.2233 140.454 21.7595 140.222 21.3471C139.99 20.9262 139.874 20.4538 139.874 19.9298C139.874 19.2168 140.054 18.667 140.415 18.2805C140.776 17.8854 141.3 17.6878 141.987 17.6878C142.666 17.6878 143.177 17.8854 143.52 18.2805C143.873 18.667 144.049 19.2254 144.049 19.9555V20.3292H142.709V19.8654C142.709 19.5561 142.648 19.3328 142.528 19.1953C142.408 19.0493 142.232 18.9763 142 18.9763C141.527 18.9763 141.291 19.2641 141.291 19.8396C141.291 20.166 141.377 20.471 141.549 20.7544C141.729 21.0379 142.051 21.3815 142.515 21.7852C143.108 22.3006 143.516 22.7688 143.739 23.1897C143.963 23.6106 144.074 24.1045 144.074 24.6715C144.074 25.4102 143.89 25.9771 143.52 26.3723C143.16 26.7674 142.631 26.965 141.936 26.965Z" fill="white"/>
<path d="M145.995 19.1051H144.513V17.8166H148.894V19.1051H147.413V26.8361H145.995V19.1051Z" fill="white"/>
<path d="M150.084 17.8166H152.004L153.473 26.8361H152.056L151.798 25.0451V25.0709H150.187L149.93 26.8361H148.615L150.084 17.8166ZM151.631 23.8468L150.999 19.3886H150.973L150.355 23.8468H151.631Z" fill="white"/>
<path d="M154.161 17.8166H155.939L157.318 23.2155H157.343V17.8166H158.606V26.8361H157.15L155.449 20.2519H155.424V26.8361H154.161V17.8166Z" fill="white"/>
<path d="M159.66 17.8166H161.824C162.529 17.8166 163.057 18.0056 163.409 18.3836C163.761 18.7615 163.937 19.3156 163.937 20.0457V24.607C163.937 25.3372 163.761 25.8912 163.409 26.2692C163.057 26.6472 162.529 26.8361 161.824 26.8361H159.66V17.8166ZM161.798 25.5476C162.03 25.5476 162.206 25.4789 162.327 25.3415C162.456 25.204 162.52 24.9807 162.52 24.6715V19.9813C162.52 19.6721 162.456 19.4487 162.327 19.3113C162.206 19.1739 162.03 19.1051 161.798 19.1051H161.077V25.5476H161.798Z" fill="white"/>
</svg>
