<svg width="968" height="196" viewBox="0 0 968 196" fill="none" xmlns="http://www.w3.org/2000/svg">
<g clip-path="url(#clip0_707_1494)">
<path d="M967.999 -6.10352e-05H-6.03223V580.8H967.999V-6.10352e-05Z" fill="#131A39"/>
<path d="M300.955 -13.9322C175.041 -59.796 151.365 -67.8653 -3.28809 -125.431V600.01H970.743V91.9777C899.982 63.6455 851.522 90.3375 787.129 60.4004C709.055 24.1036 651.648 34.3689 602.952 19.0424C470.988 -22.4888 404.45 23.7649 300.955 -13.9322Z" fill="#131A39"/>
<path d="M302.363 7.58514C171.561 -21.8223 151.365 -67.8653 -3.28809 -125.431V600.01H970.743V189.225C910.164 193.361 859.341 165.33 785.721 139.204C708.858 116.511 633.64 129.986 588.61 102.038C494.329 43.5239 441.553 38.8789 302.363 7.58514Z" fill="#0F1324"/>
<g filter="url(#filter0_f_707_1494)">
<path d="M191.517 133.611C421.847 133.611 608.567 -51.9523 608.567 -280.856C608.567 -509.761 421.847 -695.324 191.517 -695.324C-38.8136 -695.324 -225.533 -509.761 -225.533 -280.856C-225.533 -51.9523 -38.8136 133.611 191.517 133.611Z" fill="#C4C4C4" fill-opacity="0.01"/>
</g>
<g filter="url(#filter1_f_707_1494)">
<path d="M917.241 389.146C1011.95 389.146 1088.73 312.845 1088.73 218.723C1088.73 124.601 1011.95 48.3007 917.241 48.3007C822.533 48.3007 745.757 124.601 745.757 218.723C745.757 312.845 822.533 389.146 917.241 389.146Z" fill="#C4C4C4" fill-opacity="0.01"/>
</g>
<path d="M273.68 104.553C141.849 80.1127 151.365 34.9709 -3.28809 -22.595V600.01H970.743V214.934C862.59 222.319 740.106 235.849 603.231 173.296C494.346 123.535 424.591 132.53 273.68 104.553Z" fill="#E39830"/>
<g filter="url(#filter2_f_707_1494)">
<path d="M270.936 162.917C139.104 138.477 148.621 93.3348 -6.03223 35.769V622.604H967.999V276.652C874.925 265.753 739.955 264.316 584.461 243.118C465.725 226.931 421.847 190.894 270.936 162.917Z" fill="#E5901A"/>
</g>
<path d="M307.986 124.673C171.611 62.0771 114.249 82.4766 -2.16211 112.936V600.01H970.744V316.372C827.34 284.796 795.671 257.074 606.608 242.599C413.151 227.788 367.246 151.873 307.986 124.673Z" fill="#E1B06B"/>
<g filter="url(#filter3_f_707_1494)">
<path d="M305.242 147.268C168.867 84.6719 111.505 105.072 -4.90625 135.531V622.604H968V354.618C825.734 336.826 794.645 336.188 603.864 300.963C413.099 265.742 364.501 174.467 305.242 147.268Z" fill="#E39830"/>
</g>
<g filter="url(#filter4_f_707_1494)">
<path d="M380.836 558.206C500.547 558.206 597.593 461.762 597.593 342.792C597.593 223.822 500.547 127.378 380.836 127.378C261.125 127.378 164.08 223.822 164.08 342.792C164.08 461.762 261.125 558.206 380.836 558.206Z" fill="#C4C4C4" fill-opacity="0.01"/>
</g>
<path d="M650.821 300.072C477.021 270.11 438.867 216.699 361.759 154.482C297.819 102.887 266.929 48.6077 231.571 21.1859C155.763 -36.7663 48.6924 -29.9186 -6.03223 -65.4423V599.08H966.874V377.76C885.415 390.077 840.395 350.675 787.477 326.9C735.005 307.025 681.077 305.288 650.821 300.072Z" fill="#131A39"/>
<g filter="url(#filter5_f_707_1494)">
<path d="M671.627 364.903C495.358 332.441 426.852 307.265 361.759 266.26C319.481 239.624 290.537 178.041 231.571 132.964C155.763 75.0118 48.6924 81.8595 -6.03223 46.3361V599.08H966.874V415.204C805.473 379.156 752.047 379.715 671.627 364.903Z" fill="#00061F"/>
</g>
<path d="M198.885 312.181C101.378 252.688 94.0025 176.091 -3.28809 112.936V600.01H970.743V516.457C834.472 473.875 698.84 490.73 512.408 409.428C384.952 353.846 324.823 389.021 198.885 312.181Z" fill="#E8A548"/>
<g filter="url(#filter6_f_707_1494)">
<path d="M-154.193 784.527C74.6222 784.527 260.113 600.185 260.113 372.786C260.113 145.388 74.6222 -38.9545 -154.193 -38.9545C-383.008 -38.9545 -568.499 145.388 -568.499 372.786C-568.499 600.185 -383.008 784.527 -154.193 784.527Z" fill="#C4C4C4" fill-opacity="0.01"/>
</g>
<path d="M106.54 110.771V149.191L74.0928 84.2405L106.54 110.771Z" fill="#E1B06B"/>
<path d="M106.506 18.3827L73.6885 77.5204L106.506 70.9115V18.3827Z" fill="#E1B06B"/>
<path d="M106.699 18.3064L139.331 77.0836L106.699 70.9416V18.3064Z" fill="#E8A548"/>
<path d="M139.38 84.2454L106.749 110.778V149.186L139.38 84.2454Z" fill="#E8A548"/>
<path d="M106.499 105.204C106.398 106.047 84.4829 87.2201 73.5381 77.7015L106.499 70.989C106.541 82.0428 106.601 104.361 106.499 105.204Z" fill="#E39830"/>
<path d="M106.705 70.9884L139.516 77.2826L106.589 105.115L106.705 70.9884Z" fill="#E6911A"/>
</g>
<defs>
<filter id="filter0_f_707_1494" x="-334.604" y="-804.394" width="1052.24" height="1047.08" filterUnits="userSpaceOnUse" color-interpolation-filters="sRGB">
<feFlood flood-opacity="0" result="BackgroundImageFix"/>
<feBlend mode="normal" in="SourceGraphic" in2="BackgroundImageFix" result="shape"/>
<feGaussianBlur stdDeviation="54.5352" result="effect1_foregroundBlur_707_1494"/>
</filter>
<filter id="filter1_f_707_1494" x="636.686" y="-60.7698" width="561.11" height="558.986" filterUnits="userSpaceOnUse" color-interpolation-filters="sRGB">
<feFlood flood-opacity="0" result="BackgroundImageFix"/>
<feBlend mode="normal" in="SourceGraphic" in2="BackgroundImageFix" result="shape"/>
<feGaussianBlur stdDeviation="54.5352" result="effect1_foregroundBlur_707_1494"/>
</filter>
<filter id="filter2_f_707_1494" x="-93.2193" y="-51.418" width="1148.41" height="761.209" filterUnits="userSpaceOnUse" color-interpolation-filters="sRGB">
<feFlood flood-opacity="0" result="BackgroundImageFix"/>
<feBlend mode="normal" in="SourceGraphic" in2="BackgroundImageFix" result="shape"/>
<feGaussianBlur stdDeviation="43.5935" result="effect1_foregroundBlur_707_1494"/>
</filter>
<filter id="filter3_f_707_1494" x="-38.4397" y="72.8955" width="1039.97" height="583.242" filterUnits="userSpaceOnUse" color-interpolation-filters="sRGB">
<feFlood flood-opacity="0" result="BackgroundImageFix"/>
<feBlend mode="normal" in="SourceGraphic" in2="BackgroundImageFix" result="shape"/>
<feGaussianBlur stdDeviation="16.7667" result="effect1_foregroundBlur_707_1494"/>
</filter>
<filter id="filter4_f_707_1494" x="98.6378" y="61.9356" width="564.397" height="561.713" filterUnits="userSpaceOnUse" color-interpolation-filters="sRGB">
<feFlood flood-opacity="0" result="BackgroundImageFix"/>
<feBlend mode="normal" in="SourceGraphic" in2="BackgroundImageFix" result="shape"/>
<feGaussianBlur stdDeviation="32.7211" result="effect1_foregroundBlur_707_1494"/>
</filter>
<filter id="filter5_f_707_1494" x="-106.633" y="-54.2645" width="1174.11" height="753.945" filterUnits="userSpaceOnUse" color-interpolation-filters="sRGB">
<feFlood flood-opacity="0" result="BackgroundImageFix"/>
<feBlend mode="normal" in="SourceGraphic" in2="BackgroundImageFix" result="shape"/>
<feGaussianBlur stdDeviation="50.3003" result="effect1_foregroundBlur_707_1494"/>
</filter>
<filter id="filter6_f_707_1494" x="-677.569" y="-148.025" width="1046.75" height="1041.62" filterUnits="userSpaceOnUse" color-interpolation-filters="sRGB">
<feFlood flood-opacity="0" result="BackgroundImageFix"/>
<feBlend mode="normal" in="SourceGraphic" in2="BackgroundImageFix" result="shape"/>
<feGaussianBlur stdDeviation="54.5352" result="effect1_foregroundBlur_707_1494"/>
</filter>
<clipPath id="clip0_707_1494">
<path d="M0 30C0 13.4315 13.4315 0 30 0H938C954.569 0 968 13.4315 968 30V196H0V30Z" fill="white"/>
</clipPath>
</defs>
</svg>
